#!OML:ASF E:\motion texture\Top Level 1\Subject 1\Session 1\male.ASF
:FULLY-SPECIFIED
:DEGREES
205
root 21.2865 17.5763 1.3223 432.756 -81.9518 -424.882
lowerback 5.43719 -0.290987 3.10588
upperback 3.12304 -0.32308 -1.96737
thorax 0.143268 -0.13665 -3.75619
lowerneck -11.9032 -7.94207 -13.5443
upperneck -2.43544 -9.51384 17.3596
head 2.79287 -4.3696 6.91204
rclavicle 1.19271e-015 -3.33958e-014
rhumerus 30.7814 28.4628 -70.5002
rradius 70.2048
rwrist 27.6322
rhand -36.4154 -23.7847
rfingers 7.12502
rthumb -9.51059 -53.5501
lclavicle 1.19271e-015 -3.33958e-014
lhumerus 22.5324 -24.6313 90.9566
lradius 72.9855
lwrist 36.4695
lhand -13.8888 50.3337
lfingers 7.12502
lthumb 12.2363 79.9557
rfemur -30.3001 -2.25239 34.5975
rtibia 30.3994
rfoot -6.59067 -8.20642
rtoes 22.8718
lfemur -31.3369 -1.55989 -5.73613
ltibia 60.0684
lfoot -4.06529 -6.80141
ltoes -16.1098
206
root 21.1469 17.5872 1.32021 434.326 -81.8816 -426.433
lowerback 5.37741 -0.215311 3.26587
upperback 3.16685 -0.216085 -1.82028
thorax 0.231505 -0.0796958 -3.69996
lowerneck -12.0087 -7.99425 -13.4787
upperneck -2.25187 -9.60522 17.4389
head 2.88033 -4.4046 6.91163
rclavicle -6.75868e-015 -4.13472e-014
rhumerus 29.7673 28.9345 -70.8018
rradius 70.1877
rwrist 27.1999
rhand -36.0994 -23.5192
rfingers 7.12502
rthumb -9.20568 -53.2983
lclavicle -6.75868e-015 -4.13472e-014
lhumerus 21.3446 -24.6997 91.1205
lradius 73.1534
lwrist 36.1957
lhand -13.7411 50.0146
lfingers 7.12502
lthumb 12.3788 79.6281
rfemur -29.7721 -2.2655 34.8163
rtibia 30.3977
rfoot -7.19778 -8.02534
rtoes 22.1845
lfemur -32.0598 -1.48604 -5.62693
ltibia 59.7024
lfoot -4.27197 -6.30912
ltoes -15.9512
207
root 21.0071 17.5977 1.31935 435.89 -81.8159 -427.973
lowerback 5.30878 -0.143683 3.41994
upperback 3.20313 -0.115412 -1.67009
thorax 0.3164 -0.0260901 -3.63657
lowerneck -12.1109 -8.04624 -13.4182
upperneck -2.06543 -9.69697 17.5189
head 2.96855 -4.43949 6.91226
rclavicle -9.14409e-015 -2.8625e-014
rhumerus 28.757 29.3596 -71.0874
rradius 70.2073
rwrist 26.7692
rhand -35.7885 -23.2478
rfingers 7.12502
rthumb -8.90575 -53.0398
lclavicle -9.14409e-015 -2.8625e-014
lhumerus 20.2118 -24.7894 91.2455
lradius 73.2891
lwrist 35.8457
lhand -13.555 49.6727
lfingers 7.12502
lthumb 12.5582 79.2752
rfemur -29.2372 -2.27571 35.0164
rtibia 30.3769
rfoot -7.80343 -7.86205
rtoes 21.4542
lfemur -32.7412 -1.41136 -5.53563
ltibia 59.2125
lfoot -4.50031 -5.7926
ltoes -15.7954
208
root 20.867 17.6078 1.31965 437.437 -81.7568 -429.491
lowerback 5.23495 -0.0775408 3.56629
upperback 3.22985 -0.022892 -1.5184
thorax 0.393592 0.0231057 -3.56657
lowerneck -12.2117 -8.09767 -13.3601
upperneck -1.8726 -9.78889 17.5965
head 3.05847 -4.47408 6.91242
rclavicle -3.97569e-015 -2.70347e-014
rhumerus 27.7517 29.7385 -71.3566
rradius 70.2684
rwrist 26.334
rhand -35.4805 -22.9703
rfingers 7.12502
rthumb -8.60854 -52.7748
lclavicle -3.97569e-015 -2.70347e-014
lhumerus 19.1302 -24.8984 91.3329
lradius 73.3974
lwrist 35.4185
lhand -13.3369 49.2999
lfingers 7.12502
lthumb 12.7684 78.8895
rfemur -28.6968 -2.28433 35.1951
rtibia 30.3389
rfoot -8.40779 -7.71314
rtoes 20.6824
lfemur -33.3805 -1.33692 -5.46418
ltibia 58.6018
lfoot -4.7411 -5.25596
ltoes -15.6517
209
root 20.7266 17.6173 1.3211 438.998 -81.7022 -431.019
lowerback 5.15459 -0.0160445 3.70816
upperback 3.24851 0.0626766 -1.36511
thorax 0.465446 0.0685746 -3.4918
lowerneck -12.3102 -8.14787 -13.3061
upperneck -1.67523 -9.87989 17.6739
head 3.14948 -4.50787 6.91331
rclavicle 8.74653e-015 4.45278e-014
rhumerus 26.755 30.0695 -71.6051
rradius 70.3741
rwrist 25.8945
rhand -35.174 -22.685
rfingers 7.12502
rthumb -8.31269 -52.5014
lclavicle 8.74653e-015 4.45278e-014
lhumerus 18.1013 -25.0252 91.3832
lradius 73.4814
lwrist 34.9119
lhand -13.0849 48.9043
lfingers 7.12502
lthumb 13.0113 78.4785
rfemur -28.15 -2.28726 35.356
rtibia 30.2849
rfoot -9.00852 -7.58072
rtoes 19.8722
lfemur -33.975 -1.25872 -5.407
ltibia 57.8721
lfoot -4.98288 -4.70396
ltoes -15.5186
210
root 20.5857 17.6262 1.32364 440.568 -81.6527 -432.551
lowerback 5.0683 0.0400493 3.84411
upperback 3.25914 0.140263 -1.2104
thorax 0.531547 0.109756 -3.41163
lowerneck -12.408 -8.19624 -13.2548
upperneck -1.47185 -9.96915 17.7482
head 3.24189 -4.54042 6.91375
rclavicle -1.43125e-014 -6.36111e-015
rhumerus 25.7709 30.3523 -71.8295
rradius 70.5277
rwrist 25.4481
rhand -34.871 -22.3965
rfingers 7.12502
rthumb -8.02025 -52.2243
lclavicle -1.43125e-014 -6.36111e-015
lhumerus 17.1235 -25.1667 91.3979
lradius 73.5451
lwrist 34.3271
lhand -12.7966 48.4784
lfingers 7.12502
lthumb 13.2893 78.0347
rfemur -27.597 -2.28601 35.4981
rtibia 30.2153
rfoot -9.6041 -7.46376
rtoes 19.0263
lfemur -34.5238 -1.17839 -5.36396
ltibia 57.0271
lfoot -5.21768 -4.14343
ltoes -15.4069
211
root 20.4442 17.6345 1.32724 442.155 -81.608 -434.098
lowerback 4.97753 0.0905852 3.97474
upperback 3.26074 0.209799 -1.05463
thorax 0.590043 0.146562 -3.32681
lowerneck -12.5051 -8.24272 -13.2067
upperneck -1.26134 -10.0566 17.8191
head 3.33601 -4.57166 6.91381
rclavicle -1.19271e-015 -4.29375e-014
rhumerus 24.7998 30.5878 -72.0275
rradius 70.7314
rwrist 24.9946
rhand -34.5695 -22.1075
rfingers 7.12502
rthumb -7.72923 -51.9462
lclavicle -1.19271e-015 -4.29375e-014
lhumerus 16.1928 -25.3177 91.3799
lradius 73.5924
lwrist 33.6647
lhand -12.4699 48.0484
lfingers 7.12502
lthumb 13.6041 77.5839
rfemur -27.0382 -2.28085 35.6221
rtibia 30.1313
rfoot -10.1935 -7.36081
rtoes 18.1469
lfemur -35.0263 -1.09494 -5.33371
ltibia 56.0687
lfoot -5.43576 -3.58413
ltoes -15.32
212
root 20.302 17.6422 1.33187 443.769 -81.5659 -435.667
lowerback 4.88291 0.135764 4.10147
upperback 3.25337 0.271664 -0.897129
thorax 0.640653 0.179177 -3.23751
lowerneck -12.6 -8.28668 -13.1616
upperneck -1.04474 -10.1413 17.8852
head 3.43107 -4.60127 6.91314
rclavicle -2.38542e-015 2.38542e-014
rhumerus 23.8439 30.7743 -72.1965
rradius 70.9874
rwrist 24.5332
rhand -34.2677 -21.8246
rfingers 7.12502
rthumb -7.43798 -51.6738
lclavicle -2.38542e-015 2.38542e-014
lhumerus 15.3051 -25.4731 91.3324
lradius 73.6269
lwrist 32.9262
lhand -12.0968 47.5992
lfingers 7.12502
lthumb 13.9637 77.1103
rfemur -26.473 -2.27216 35.7306
rtibia 30.0334
rfoot -10.7753 -7.27057
rtoes 17.2423
lfemur -35.4814 -1.00817 -5.31311
ltibia 55.0002
lfoot -5.62722 -3.03149
ltoes -15.2431
213
root 20.159 17.6493 1.33749 445.415 -81.5246 -437.265
lowerback 4.78689 0.175323 4.22651
upperback 3.236 0.325763 -0.738154
thorax 0.680977 0.20751 -3.14532
lowerneck -12.6953 -8.3281 -13.1176
upperneck -0.819022 -10.2233 17.944
head 3.52809 -4.62918 6.91052
rclavicle -7.95139e-016 3.97569e-014
rhumerus 22.902 30.9121 -72.3364
rradius 71.2972
rwrist 24.0611
rhand -33.9662 -21.5465
rfingers 7.12502
rthumb -7.14698 -51.4058
lclavicle -7.95139e-016 3.97569e-014
lhumerus 14.4563 -25.6286 91.2568
lradius 73.6539
lwrist 32.119
lhand -11.6987 47.0965
lfingers 7.12502
lthumb 14.3474 76.5808
rfemur -25.9013 -2.25954 35.8257
rtibia 29.9225
rfoot -11.3473 -7.19316
rtoes 16.3156
lfemur -35.8891 -0.917583 -5.29931
ltibia 53.827
lfoot -5.78947 -2.49356
ltoes -15.1778
214
root 20.0151 17.6556 1.34405 447.092 -81.4824 -438.892
lowerback 4.68978 0.209266 4.35097
upperback 3.20858 0.372199 -0.57752
thorax 0.710814 0.231607 -3.0507
lowerneck -12.7884 -8.36631 -13.0752
upperneck -0.58544 -10.3018 17.9958
head 3.6262 -4.65509 6.90633
rclavicle -3.18055e-015 2.8625e-014
rhumerus 21.9751 31.0021 -72.4444
rradius 71.6627
rwrist 23.58
rhand -33.6688 -21.2865
rfingers 7.12502
rthumb -6.85988 -51.1553
lclavicle -3.18055e-015 2.8625e-014
lhumerus 13.6409 -25.7787 91.156
lradius 73.678
lwrist 31.253
lhand -11.2568 46.5897
lfingers 7.12502
lthumb 14.7731 76.0432
rfemur -25.3228 -2.24317 35.9087
rtibia 29.7992
rfoot -11.9081 -7.12749
rtoes 15.3809
lfemur -36.2497 -0.822866 -5.28992
ltibia 52.5563
lfoot -5.92425 -1.97558
ltoes -15.1184
215
root 19.8701 17.6612 1.35148 448.805 -81.4381 -440.551
lowerback 4.58643 0.237713 4.47571
upperback 3.17404 0.410833 -0.415692
thorax 0.736078 0.251567 -2.95463
lowerneck -12.8801 -8.40076 -13.0322
upperneck -0.346845 -10.3759 18.0392
head 3.72432 -4.67873 6.8999
rclavicle 7.95139e-015 -2.38542e-015
rhumerus 21.0688 31.0415 -72.5186
rradius 72.0824
rwrist 23.0954
rhand -33.3695 -21.026
rfingers 7.12502
rthumb -6.57093 -50.904
lclavicle 7.95139e-015 -2.38542e-015
lhumerus 12.8585 -25.9162 91.03
lradius 73.7059
lwrist 30.3375
lhand -10.7518 46.0579
lfingers 7.12502
lthumb 15.2596 75.4751
rfemur -24.7379 -2.22102 35.9805
rtibia 29.665
rfoot -12.4568 -7.07367
rtoes 14.4534
lfemur -36.5646 -0.724047 -5.28325
ltibia 51.1967
lfoot -6.03433 -1.47842
ltoes -15.0648
216
root 19.724 17.666 1.35969 450.547 -81.3903 -442.237
lowerback 4.47976 0.25993 4.60003
upperback 3.13068 0.440866 -0.25189
thorax 0.753327 0.266864 -2.85592
lowerneck -12.9715 -8.43063 -12.9913
upperneck -0.0997977 -10.4443 18.0757
head 3.82372 -4.69929 6.89221
rclavicle 7.95139e-016 2.06736e-014
rhumerus 20.1799 31.0314 -72.5584
rradius 72.5541
rwrist 22.6163
rhand -33.0683 -20.7739
rfingers 7.12502
rthumb -6.28015 -50.6608
lclavicle 7.95139e-016 2.06736e-014
lhumerus 12.1017 -26.0413 90.8794
lradius 73.7431
lwrist 29.3757
lhand -10.2109 45.4931
lfingers 7.12502
lthumb 15.7805 74.8698
rfemur -24.1466 -2.19318 36.0426
rtibia 29.5195
rfoot -12.9894 -7.03301
rtoes 13.5361
lfemur -36.8355 -0.621837 -5.27726
ltibia 49.7571
lfoot -6.12 -1.00041
ltoes -15.0396
217
root 19.5768 17.6699 1.36865 452.322 -81.3396 -443.952
lowerback 4.37046 0.276561 4.7236
upperback 3.07824 0.46321 -0.086953
thorax 0.761987 0.277931 -2.75534
lowerneck -13.0625 -8.4563 -12.9466
upperneck 0.154278 -10.5078 18.0987
head 3.92326 -4.71736 6.8802
rclavicle 1.19271e-015 -7.95139e-016
rhumerus 19.3096 30.9706 -72.5627
rradius 73.0747
rwrist 22.1451
rhand -32.7655 -20.5278
rfingers 7.12502
rthumb -5.98784 -50.4232
lclavicle 1.19271e-015 -7.95139e-016
lhumerus 11.3679 -26.1517 90.7053
lradius 73.7908
lwrist 28.3845
lhand -9.61303 44.9703
lfingers 7.12502
lthumb 16.3563 74.3006
rfemur -23.5503 -2.15848 36.0939
rtibia 29.3647
rfoot -13.5031 -7.00438
rtoes 12.64
lfemur -37.0651 -0.516067 -5.27292
ltibia 48.2481
lfoot -6.18424 -0.537996
ltoes -15.0453
218
root 19.4282 17.673 1.37831 454.134 -81.2855 -445.7
lowerback 4.25662 0.287653 4.84581
upperback 3.01853 0.477732 0.0789703
thorax 0.765011 0.284764 -2.65269
lowerneck -13.1545 -8.47673 -12.9004
upperneck 0.415624 -10.5646 18.1109
head 4.02332 -4.73201 6.86526
rclavicle 7.95139e-015 -6.36111e-015
rhumerus 18.4618 30.8628 -72.5279
rradius 73.6458
rwrist 21.6732
rhand -32.4638 -20.2867
rfingers 7.12502
rthumb -5.69651 -50.1902
lclavicle 7.95139e-015 -6.36111e-015
lhumerus 10.6541 -26.2407 90.5101
lradius 73.8537
lwrist 27.3755
lhand -9.00345 44.4229
lfingers 7.12502
lthumb 16.9431 73.7039
rfemur -22.9484 -2.11487 36.1345
rtibia 29.2014
rfoot -13.996 -6.98666
rtoes 11.7749
lfemur -37.255 -0.407526 -5.2696
ltibia 46.6814
lfoot -6.23108 -0.0875571
ltoes -15.0733
219
root 19.2782 17.6751 1.38864 455.983 -81.2289 -447.483
lowerback 4.13806 0.293704 4.96525
upperback 2.95163 0.485042 0.245134
thorax 0.762653 0.287657 -2.54801
lowerneck -13.2456 -8.49188 -12.851
upperneck 0.682048 -10.6147 18.1109
head 4.12271 -4.74345 6.84675
rclavicle -2.18663e-015 1.74931e-014
rhumerus 17.6345 30.7092 -72.452
rradius 74.2665
rwrist 21.2011
rhand -32.1629 -20.0539
rfingers 7.12502
rthumb -5.40604 -49.965
lclavicle -2.18663e-015 1.74931e-014
lhumerus 9.95173 -26.3057 90.2951
lradius 73.9374
lwrist 26.3481
lhand -8.39497 43.8421
lfingers 7.12502
lthumb 17.5288 73.0718
rfemur -22.3423 -2.06132 36.1626
rtibia 29.0311
rfoot -14.4706 -6.97835
rtoes 10.9353
lfemur -37.4077 -0.296569 -5.26868
ltibia 45.0683
lfoot -6.26115 0.353317
ltoes -15.117
